<svg xmlns="http://www.w3.org/2000/svg" viewBox="0 0 640 360" font-family="-apple-system, Segoe UI, Roboto, sans-serif" font-size="14" role="img">
  <title>SharePoint connector sync modes: manual/periodic (sync_once.py) and event-triggered (listener + watcher + deploy_fly_io.sh)</title>
  <defs>
    <marker id="arrow" markerWidth="10" markerHeight="10" refX="7" refY="3" orient="auto" markerUnits="strokeWidth">
      <path d="M0,0 L8,3 L0,6 Z" fill="#334155"/>
    </marker>
    <marker id="barrow" markerWidth="10" markerHeight="10" refX="7" refY="3" orient="auto" markerUnits="strokeWidth">
      <path d="M0,0 L8,3 L0,6 Z" fill="#1d4ed8"/>
    </marker>
  </defs>

  <!-- ============ Panel 1: Manual / periodic sync ============ -->
  <text x="30" y="28" font-weight="600" font-size="15" fill="#0f172a">Manual / periodic sync</text>

  <rect x="32" y="56" width="96" height="44" rx="8" fill="#eef2ff" stroke="#475569"/>
  <text x="80" y="74" text-anchor="middle">SharePoint</text>
  <text x="80" y="89" text-anchor="middle">site</text>

  <rect x="224" y="56" width="124" height="44" rx="8" fill="#fff7ed" stroke="#475569"/>
  <text x="286" y="83" text-anchor="middle" font-family="ui-monospace, SFMono-Regular, Menlo, monospace">sync_once.py</text>

  <rect x="491" y="56" width="74" height="44" rx="8" fill="#ecfdf5" stroke="#475569"/>
  <text x="528" y="83" text-anchor="middle">Goodmem</text>

  <line x1="130" y1="78" x2="222" y2="78" stroke="#334155" stroke-width="1.5" marker-end="url(#arrow)"/>
  <text x="176" y="68" text-anchor="middle" fill="#64748b" font-size="12">pull changes</text>

  <line x1="350" y1="78" x2="489" y2="78" stroke="#334155" stroke-width="1.5" marker-end="url(#arrow)"/>
  <text x="419" y="68" text-anchor="middle" fill="#64748b" font-size="12">ingest</text>

  <text x="298" y="122" text-anchor="middle" fill="#64748b" font-size="13">Run on demand or on a schedule (cron), from anywhere.</text>

  <line x1="30" y1="144" x2="610" y2="144" stroke="#e2e8f0" stroke-width="1.5"/>

  <!-- ============ Panel 2: Event-triggered sync ============ -->
  <text x="30" y="170" font-weight="600" font-size="15" fill="#0f172a">Event-triggered sync</text>

  <!-- runtime boxes (center y=225) -->
  <rect x="32" y="200" width="96" height="50" rx="8" fill="#eef2ff" stroke="#475569"/>
  <text x="80" y="221" text-anchor="middle">SharePoint</text>
  <text x="80" y="236" text-anchor="middle">site</text>

  <rect x="208" y="200" width="156" height="50" rx="8" fill="#fff7ed" stroke="#475569"/>
  <text x="286" y="221" text-anchor="middle" font-family="ui-monospace, SFMono-Regular, Menlo, monospace">listener.py</text>
  <text x="286" y="236" text-anchor="middle" fill="#94a3b8" font-size="11">public host · HTTPS/TLS</text>

  <rect x="440" y="200" width="176" height="50" rx="8" fill="#ecfdf5" stroke="#475569"/>
  <text x="528" y="221" text-anchor="middle">Goodmem</text>
  <text x="528" y="236" text-anchor="middle" fill="#94a3b8" font-size="11">accessible to the listener</text>

  <!-- runtime arrows (numbered sequence) -->
  <line x1="130" y1="220" x2="206" y2="220" stroke="#334155" stroke-width="1.5" marker-end="url(#arrow)"/>
  <text x="168" y="211" text-anchor="middle" fill="#64748b" font-size="12">1 · webhook</text>

  <line x1="206" y1="232" x2="130" y2="232" stroke="#334155" stroke-width="1.5" marker-end="url(#arrow)"/>
  <text x="168" y="245" text-anchor="middle" fill="#64748b" font-size="12">2 · delta pull</text>

  <line x1="366" y1="225" x2="438" y2="225" stroke="#334155" stroke-width="1.5" marker-end="url(#arrow)"/>
  <text x="402" y="216" text-anchor="middle" fill="#64748b" font-size="12">3 · sync</text>

  <!-- watcher: bottom-left (optional monitoring), mirrors deploy about center, y=320 -->
  <rect x="67" y="298" width="186" height="44" rx="8" fill="#eef2ff" stroke="#475569" stroke-dasharray="6 4"/>
  <text x="160" y="317" text-anchor="middle" font-family="ui-monospace, SFMono-Regular, Menlo, monospace" font-size="13">watch_listener.py</text>
  <text x="160" y="332" text-anchor="middle" fill="#64748b" font-size="11">optional · any host (your laptop)</text>

  <!-- deploy_fly_io.sh: bottom-right (mirrors watcher about center) -->
  <rect x="392" y="298" width="176" height="44" rx="8" fill="#dbeafe" stroke="#1d4ed8"/>
  <text x="480" y="325" text-anchor="middle" font-family="ui-monospace, SFMono-Regular, Menlo, monospace" fill="#1e3a8a">./deploy_fly_io.sh</text>

  <!-- watcher polls listener -->
  <line x1="200" y1="298" x2="280" y2="252" stroke="#334155" stroke-width="1.5" marker-end="url(#arrow)"/>
  <text x="172" y="278" text-anchor="middle" fill="#64748b" font-size="12">GET /activity (poll)</text>

  <!-- deploy connector to listener: always (solid) -->
  <line x1="420" y1="298" x2="345" y2="252" stroke="#1d4ed8" stroke-width="1.5" marker-end="url(#barrow)"/>
  <text x="398" y="288" text-anchor="middle" fill="#1d4ed8" font-size="12">deploys (always)</text>

  <!-- deploy connector to Goodmem: optional (dashed), label beside connector -->
  <line x1="528" y1="298" x2="528" y2="252" stroke="#1d4ed8" stroke-width="1.5" stroke-dasharray="6 4" marker-end="url(#barrow)"/>
  <text x="534" y="267" text-anchor="start" fill="#1d4ed8" font-size="11">deploys with</text>
  <text x="534" y="281" text-anchor="start" fill="#1d4ed8" font-size="10"><tspan font-family="'Courier New', Courier, monospace">--hands-free</tspan> or</text>
  <text x="534" y="295" text-anchor="start" fill="#1d4ed8" font-size="10" font-family="'Courier New', Courier, monospace">--goodmem-only</text>
</svg>
